<svg width="24" height="25" viewBox="0 0 24 25" fill="none" xmlns="http://www.w3.org/2000/svg">
<path d="M6 6.5H6.01M6 18.5H6.01M4 2.5H20C21.1046 2.5 22 3.39543 22 4.5V8.5C22 9.60457 21.1046 10.5 20 10.5H4C2.89543 10.5 2 9.60457 2 8.5V4.5C2 3.39543 2.89543 2.5 4 2.5ZM4 14.5H20C21.1046 14.5 22 15.3954 22 16.5V20.5C22 21.6046 21.1046 22.5 20 22.5H4C2.89543 22.5 2 21.6046 2 20.5V16.5C2 15.3954 2.89543 14.5 4 14.5Z" stroke="#757575" stroke-width="2.5" stroke-linecap="round" stroke-linejoin="round"/>
</svg>
